<svg width="32" height="32" viewBox="0 0 32 32" xmlns="http://www.w3.org/2000/svg">
  <defs>
    <linearGradient id="gradient" x1="0%" y1="0%" x2="100%" y2="100%">
      <stop offset="0%" style="stop-color:#4A90E2;stop-opacity:1" />
      <stop offset="100%" style="stop-color:#357ABD;stop-opacity:1" />
    </linearGradient>
  </defs>
  
  <!-- Background circle -->
  <circle cx="16" cy="16" r="15" fill="url(#gradient)" stroke="#2C5F91" stroke-width="1"/>
  
  <!-- G -->
  <path d="M 8 12 Q 8 9 11 9 L 15 9 Q 18 9 18 12 L 18 14 L 16 14 L 16 12 Q 16 11 15 11 L 11 11 Q 10 11 10 12 L 10 20 Q 10 21 11 21 L 15 21 Q 16 21 16 20 L 16 18 L 13 18 L 13 16 L 18 16 L 18 20 Q 18 23 15 23 L 11 23 Q 8 23 8 20 Z" fill="white"/>
  
  <!-- Robot figure -->
  <rect x="20" y="10" width="3" height="2" fill="white" rx="0.5"/>
  <rect x="20.5" y="12" width="2" height="4" fill="white" rx="0.5"/>
  <rect x="19.5" y="16" width="1" height="3" fill="white" rx="0.5"/>
  <rect x="21.5" y="16" width="1" height="3" fill="white" rx="0.5"/>
  <rect x="20" y="19" width="3" height="1.5" fill="white" rx="0.3"/>
  <circle cx="21" cy="11" r="0.5" fill="white"/>
</svg>
